# xmcd
#
# Track frame offsets:
#	150
#	12956
#	28744
#	46873
#	63742
#	78370
#	94399
#	108827
#	122385
#	137918
#
# Disc length: 2087 seconds
#
# Revision: 0
# Processed by: cddbd v1.5.1PL2 Copyright (c) Steve Scherf et al.
# Submitted via: EasyCDDAExtractor 4.6.9.1
#
DISCID=7e08250a
DTITLE=Pam Tillis - Put Yourself In My Place
DYEAR=1991
DGENRE=Country
TTITLE0=Put Yourself In My Place
TTITLE1=Melancholy Child
TTITLE2=Maybe It Was Memphis
TTITLE3=Blue Rose Is
TTITLE4=Don't Tell Me What To Do
TTITLE5=One Of Those Things
TTITLE6=Draggin' My Chains
TTITLE7=Ancient History
TTITLE8=I've Seen Enough To Know
TTITLE9=Put Yourself In My Place - 10 - Already Fallen
EXTD=
EXTT0=
EXTT1=
EXTT2=
EXTT3=
EXTT4=
EXTT5=
EXTT6=
EXTT7=
EXTT8=
EXTT9=
PLAYORDER=
